<?xml version="1.0" encoding="UTF-8" standalone="no"?>
<!DOCTYPE svg PUBLIC "-//W3C//DTD SVG 1.1//EN"
 "http://www.w3.org/Graphics/SVG/1.1/DTD/svg11.dtd">
<!-- Generated by graphviz version 2.43.0 (0)
 -->
<!-- Title: G Pages: 1 -->
<svg width="979pt" height="515pt"
 viewBox="0.00 0.00 979.20 515.20" xmlns="http://www.w3.org/2000/svg" xmlns:xlink="http://www.w3.org/1999/xlink">
<g id="graph0" class="graph" transform="scale(1 1) rotate(0) translate(21.6 493.6)">
<title>G</title>
<polygon fill="#111111" stroke="transparent" points="-21.6,21.6 -21.6,-493.6 957.6,-493.6 957.6,21.6 -21.6,21.6"/>
<!-- data/_glossary.json -->
<g id="node1" class="node">
<title>data/_glossary.json</title>
<path fill="none" stroke="#cfffac" d="M757.33,-23C757.33,-23 640.67,-23 640.67,-23 636.83,-23 633,-19.17 633,-15.33 633,-15.33 633,-7.67 633,-7.67 633,-3.83 636.83,0 640.67,0 640.67,0 757.33,0 757.33,0 761.17,0 765,-3.83 765,-7.67 765,-7.67 765,-15.33 765,-15.33 765,-19.17 761.17,-23 757.33,-23"/>
<text text-anchor="middle" x="699" y="-7.8" font-family="Arial" font-size="14.00" fill="#cfffac">data/_glossary.json</text>
</g>
<!-- data/index.ts -->
<g id="node2" class="node">
<title>data/index.ts</title>
<path fill="none" stroke="#c6c5fe" d="M737.83,-269C737.83,-269 660.17,-269 660.17,-269 656.33,-269 652.5,-265.17 652.5,-261.33 652.5,-261.33 652.5,-253.67 652.5,-253.67 652.5,-249.83 656.33,-246 660.17,-246 660.17,-246 737.83,-246 737.83,-246 741.67,-246 745.5,-249.83 745.5,-253.67 745.5,-253.67 745.5,-261.33 745.5,-261.33 745.5,-265.17 741.67,-269 737.83,-269"/>
<text text-anchor="middle" x="699" y="-253.8" font-family="Arial" font-size="14.00" fill="#c6c5fe">data/index.ts</text>
</g>
<!-- types/roadmap.ts -->
<g id="node3" class="node">
<title>types/roadmap.ts</title>
<path fill="none" stroke="#cfffac" d="M928.33,-187C928.33,-187 822.67,-187 822.67,-187 818.83,-187 815,-183.17 815,-179.33 815,-179.33 815,-171.67 815,-171.67 815,-167.83 818.83,-164 822.67,-164 822.67,-164 928.33,-164 928.33,-164 932.17,-164 936,-167.83 936,-171.67 936,-171.67 936,-179.33 936,-179.33 936,-183.17 932.17,-187 928.33,-187"/>
<text text-anchor="middle" x="875.5" y="-171.8" font-family="Arial" font-size="14.00" fill="#cfffac">types/roadmap.ts</text>
</g>
<!-- data/index.ts&#45;&gt;types/roadmap.ts -->
<g id="edge1" class="edge">
<title>data/index.ts&#45;&gt;types/roadmap.ts</title>
<path fill="none" stroke="#757575" d="M745.56,-248.67C756.73,-245.77 768.5,-242.09 779,-237.5 805.58,-225.89 833.07,-207.21 851.69,-193.39"/>
<polygon fill="#757575" stroke="#757575" points="853.97,-196.06 859.83,-187.23 849.75,-190.47 853.97,-196.06"/>
</g>
<!-- env.d.ts -->
<g id="node4" class="node">
<title>env.d.ts</title>
<path fill="none" stroke="#cfffac" d="M114.83,-267C114.83,-267 67.17,-267 67.17,-267 63.33,-267 59.5,-263.17 59.5,-259.33 59.5,-259.33 59.5,-251.67 59.5,-251.67 59.5,-247.83 63.33,-244 67.17,-244 67.17,-244 114.83,-244 114.83,-244 118.67,-244 122.5,-247.83 122.5,-251.67 122.5,-251.67 122.5,-259.33 122.5,-259.33 122.5,-263.17 118.67,-267 114.83,-267"/>
<text text-anchor="middle" x="91" y="-251.8" font-family="Arial" font-size="14.00" fill="#cfffac">env.d.ts</text>
</g>
<!-- lib/supabase.ts -->
<g id="node5" class="node">
<title>lib/supabase.ts</title>
<path fill="none" stroke="#cfffac" d="M744.83,-228C744.83,-228 653.17,-228 653.17,-228 649.33,-228 645.5,-224.17 645.5,-220.33 645.5,-220.33 645.5,-212.67 645.5,-212.67 645.5,-208.83 649.33,-205 653.17,-205 653.17,-205 744.83,-205 744.83,-205 748.67,-205 752.5,-208.83 752.5,-212.67 752.5,-212.67 752.5,-220.33 752.5,-220.33 752.5,-224.17 748.67,-228 744.83,-228"/>
<text text-anchor="middle" x="699" y="-212.8" font-family="Arial" font-size="14.00" fill="#cfffac">lib/supabase.ts</text>
</g>
<!-- lib/sync.ts -->
<g id="node6" class="node">
<title>lib/sync.ts</title>
<path fill="none" stroke="#c6c5fe" d="M523.83,-186C523.83,-186 463.17,-186 463.17,-186 459.33,-186 455.5,-182.17 455.5,-178.33 455.5,-178.33 455.5,-170.67 455.5,-170.67 455.5,-166.83 459.33,-163 463.17,-163 463.17,-163 523.83,-163 523.83,-163 527.67,-163 531.5,-166.83 531.5,-170.67 531.5,-170.67 531.5,-178.33 531.5,-178.33 531.5,-182.17 527.67,-186 523.83,-186"/>
<text text-anchor="middle" x="493.5" y="-170.8" font-family="Arial" font-size="14.00" fill="#c6c5fe">lib/sync.ts</text>
</g>
<!-- lib/sync.ts&#45;&gt;lib/supabase.ts -->
<g id="edge2" class="edge">
<title>lib/sync.ts&#45;&gt;lib/supabase.ts</title>
<path fill="none" stroke="#757575" d="M531.83,-182.2C560.75,-188.17 601.48,-196.58 635.38,-203.58"/>
<polygon fill="#757575" stroke="#757575" points="634.7,-207.01 645.2,-205.6 636.11,-200.15 634.7,-207.01"/>
</g>
<!-- types/custom&#45;content.ts -->
<g id="node7" class="node">
<title>types/custom&#45;content.ts</title>
<path fill="none" stroke="#c6c5fe" d="M771.33,-146C771.33,-146 626.67,-146 626.67,-146 622.83,-146 619,-142.17 619,-138.33 619,-138.33 619,-130.67 619,-130.67 619,-126.83 622.83,-123 626.67,-123 626.67,-123 771.33,-123 771.33,-123 775.17,-123 779,-126.83 779,-130.67 779,-130.67 779,-138.33 779,-138.33 779,-142.17 775.17,-146 771.33,-146"/>
<text text-anchor="middle" x="699" y="-130.8" font-family="Arial" font-size="14.00" fill="#c6c5fe">types/custom&#45;content.ts</text>
</g>
<!-- lib/sync.ts&#45;&gt;types/custom&#45;content.ts -->
<g id="edge3" class="edge">
<title>lib/sync.ts&#45;&gt;types/custom&#45;content.ts</title>
<path fill="none" stroke="#757575" d="M531.83,-167.16C559.07,-161.81 596.78,-154.4 629.4,-147.98"/>
<polygon fill="#757575" stroke="#757575" points="630.2,-151.39 639.34,-146.03 628.85,-144.53 630.2,-151.39"/>
</g>
<!-- types/custom&#45;content.ts&#45;&gt;types/roadmap.ts -->
<g id="edge4" class="edge">
<title>types/custom&#45;content.ts&#45;&gt;types/roadmap.ts</title>
<path fill="none" stroke="#757575" d="M749.07,-146.03C769.79,-150.9 794.09,-156.61 815.75,-161.7"/>
<polygon fill="#757575" stroke="#757575" points="814.96,-165.11 825.49,-163.99 816.56,-158.29 814.96,-165.11"/>
</g>
<!-- types/cytoscape&#45;dagre.d.ts -->
<g id="node8" class="node">
<title>types/cytoscape&#45;dagre.d.ts</title>
<path fill="none" stroke="#cfffac" d="M172.33,-308C172.33,-308 9.67,-308 9.67,-308 5.83,-308 2,-304.17 2,-300.33 2,-300.33 2,-292.67 2,-292.67 2,-288.83 5.83,-285 9.67,-285 9.67,-285 172.33,-285 172.33,-285 176.17,-285 180,-288.83 180,-292.67 180,-292.67 180,-300.33 180,-300.33 180,-304.17 176.17,-308 172.33,-308"/>
<text text-anchor="middle" x="91" y="-292.8" font-family="Arial" font-size="14.00" fill="#cfffac">types/cytoscape&#45;dagre.d.ts</text>
</g>
<!-- types/roadmap.test.ts -->
<g id="node9" class="node">
<title>types/roadmap.test.ts</title>
<path fill="none" stroke="#c6c5fe" d="M558.83,-269C558.83,-269 428.17,-269 428.17,-269 424.33,-269 420.5,-265.17 420.5,-261.33 420.5,-261.33 420.5,-253.67 420.5,-253.67 420.5,-249.83 424.33,-246 428.17,-246 428.17,-246 558.83,-246 558.83,-246 562.67,-246 566.5,-249.83 566.5,-253.67 566.5,-253.67 566.5,-261.33 566.5,-261.33 566.5,-265.17 562.67,-269 558.83,-269"/>
<text text-anchor="middle" x="493.5" y="-253.8" font-family="Arial" font-size="14.00" fill="#c6c5fe">types/roadmap.test.ts</text>
</g>
<!-- types/roadmap.test.ts&#45;&gt;data/index.ts -->
<g id="edge5" class="edge">
<title>types/roadmap.test.ts&#45;&gt;data/index.ts</title>
<path fill="none" stroke="#757575" d="M566.53,-257.5C591.43,-257.5 618.93,-257.5 642.32,-257.5"/>
<polygon fill="#757575" stroke="#757575" points="642.41,-261 652.41,-257.5 642.41,-254 642.41,-261"/>
</g>
<!-- utils/customContent.ts -->
<g id="node10" class="node">
<title>utils/customContent.ts</title>
<path fill="none" stroke="#c6c5fe" d="M360.33,-146C360.33,-146 225.67,-146 225.67,-146 221.83,-146 218,-142.17 218,-138.33 218,-138.33 218,-130.67 218,-130.67 218,-126.83 221.83,-123 225.67,-123 225.67,-123 360.33,-123 360.33,-123 364.17,-123 368,-126.83 368,-130.67 368,-130.67 368,-138.33 368,-138.33 368,-142.17 364.17,-146 360.33,-146"/>
<text text-anchor="middle" x="293" y="-130.8" font-family="Arial" font-size="14.00" fill="#c6c5fe">utils/customContent.ts</text>
</g>
<!-- utils/customContent.ts&#45;&gt;lib/sync.ts -->
<g id="edge6" class="edge">
<title>utils/customContent.ts&#45;&gt;lib/sync.ts</title>
<path fill="none" stroke="#757575" d="M351.15,-146.02C381.04,-152.04 417.18,-159.32 445.43,-165.02"/>
<polygon fill="#757575" stroke="#757575" points="444.96,-168.49 455.46,-167.04 446.35,-161.63 444.96,-168.49"/>
</g>
<!-- utils/customContent.ts&#45;&gt;types/custom&#45;content.ts -->
<g id="edge7" class="edge">
<title>utils/customContent.ts&#45;&gt;types/custom&#45;content.ts</title>
<path fill="none" stroke="#757575" d="M368.1,-134.5C435.98,-134.5 536.59,-134.5 608.84,-134.5"/>
<polygon fill="#757575" stroke="#757575" points="608.85,-138 618.85,-134.5 608.85,-131 608.85,-138"/>
</g>
<!-- utils/parseNotes.test.ts -->
<g id="node11" class="node">
<title>utils/parseNotes.test.ts</title>
<path fill="none" stroke="#c6c5fe" d="M159.83,-23C159.83,-23 22.17,-23 22.17,-23 18.33,-23 14.5,-19.17 14.5,-15.33 14.5,-15.33 14.5,-7.67 14.5,-7.67 14.5,-3.83 18.33,0 22.17,0 22.17,0 159.83,0 159.83,0 163.67,0 167.5,-3.83 167.5,-7.67 167.5,-7.67 167.5,-15.33 167.5,-15.33 167.5,-19.17 163.67,-23 159.83,-23"/>
<text text-anchor="middle" x="91" y="-7.8" font-family="Arial" font-size="14.00" fill="#c6c5fe">utils/parseNotes.test.ts</text>
</g>
<!-- utils/parseNotes.ts -->
<g id="node12" class="node">
<title>utils/parseNotes.ts</title>
<path fill="none" stroke="#c6c5fe" d="M349.33,-23C349.33,-23 236.67,-23 236.67,-23 232.83,-23 229,-19.17 229,-15.33 229,-15.33 229,-7.67 229,-7.67 229,-3.83 232.83,0 236.67,0 236.67,0 349.33,0 349.33,0 353.17,0 357,-3.83 357,-7.67 357,-7.67 357,-15.33 357,-15.33 357,-19.17 353.17,-23 349.33,-23"/>
<text text-anchor="middle" x="293" y="-7.8" font-family="Arial" font-size="14.00" fill="#c6c5fe">utils/parseNotes.ts</text>
</g>
<!-- utils/parseNotes.test.ts&#45;&gt;utils/parseNotes.ts -->
<g id="edge8" class="edge">
<title>utils/parseNotes.test.ts&#45;&gt;utils/parseNotes.ts</title>
<path fill="none" stroke="#757575" d="M167.61,-11.5C184.38,-11.5 202.11,-11.5 218.78,-11.5"/>
<polygon fill="#757575" stroke="#757575" points="219,-15 229,-11.5 219,-8 219,-15"/>
</g>
<!-- utils/wrapGlossaryTerms.ts -->
<g id="node13" class="node">
<title>utils/wrapGlossaryTerms.ts</title>
<path fill="none" stroke="#c6c5fe" d="M575.33,-23C575.33,-23 411.67,-23 411.67,-23 407.83,-23 404,-19.17 404,-15.33 404,-15.33 404,-7.67 404,-7.67 404,-3.83 407.83,0 411.67,0 411.67,0 575.33,0 575.33,0 579.17,0 583,-3.83 583,-7.67 583,-7.67 583,-15.33 583,-15.33 583,-19.17 579.17,-23 575.33,-23"/>
<text text-anchor="middle" x="493.5" y="-7.8" font-family="Arial" font-size="14.00" fill="#c6c5fe">utils/wrapGlossaryTerms.ts</text>
</g>
<!-- utils/parseNotes.ts&#45;&gt;utils/wrapGlossaryTerms.ts -->
<g id="edge9" class="edge">
<title>utils/parseNotes.ts&#45;&gt;utils/wrapGlossaryTerms.ts</title>
<path fill="none" stroke="#757575" d="M357.08,-11.5C368.81,-11.5 381.33,-11.5 393.83,-11.5"/>
<polygon fill="#757575" stroke="#757575" points="393.84,-15 403.84,-11.5 393.84,-8 393.84,-15"/>
</g>
<!-- utils/wrapGlossaryTerms.ts&#45;&gt;data/_glossary.json -->
<g id="edge19" class="edge">
<title>utils/wrapGlossaryTerms.ts&#45;&gt;data/_glossary.json</title>
<path fill="none" stroke="#757575" d="M583.17,-11.5C596.35,-11.5 609.83,-11.5 622.71,-11.5"/>
<polygon fill="#757575" stroke="#757575" points="622.89,-15 632.89,-11.5 622.89,-8 622.89,-15"/>
</g>
<!-- utils/parseNotesClient.ts -->
<g id="node14" class="node">
<title>utils/parseNotesClient.ts</title>
<path fill="none" stroke="#cfffac" d="M164.33,-349C164.33,-349 17.67,-349 17.67,-349 13.83,-349 10,-345.17 10,-341.33 10,-341.33 10,-333.67 10,-333.67 10,-329.83 13.83,-326 17.67,-326 17.67,-326 164.33,-326 164.33,-326 168.17,-326 172,-329.83 172,-333.67 172,-333.67 172,-341.33 172,-341.33 172,-345.17 168.17,-349 164.33,-349"/>
<text text-anchor="middle" x="91" y="-333.8" font-family="Arial" font-size="14.00" fill="#cfffac">utils/parseNotesClient.ts</text>
</g>
<!-- utils/progress.test.ts -->
<g id="node15" class="node">
<title>utils/progress.test.ts</title>
<path fill="none" stroke="#c6c5fe" d="M151.83,-226C151.83,-226 30.17,-226 30.17,-226 26.33,-226 22.5,-222.17 22.5,-218.33 22.5,-218.33 22.5,-210.67 22.5,-210.67 22.5,-206.83 26.33,-203 30.17,-203 30.17,-203 151.83,-203 151.83,-203 155.67,-203 159.5,-206.83 159.5,-210.67 159.5,-210.67 159.5,-218.33 159.5,-218.33 159.5,-222.17 155.67,-226 151.83,-226"/>
<text text-anchor="middle" x="91" y="-210.8" font-family="Arial" font-size="14.00" fill="#c6c5fe">utils/progress.test.ts</text>
</g>
<!-- utils/progress.ts -->
<g id="node16" class="node">
<title>utils/progress.ts</title>
<path fill="none" stroke="#cfffac" d="M340.83,-226C340.83,-226 245.17,-226 245.17,-226 241.33,-226 237.5,-222.17 237.5,-218.33 237.5,-218.33 237.5,-210.67 237.5,-210.67 237.5,-206.83 241.33,-203 245.17,-203 245.17,-203 340.83,-203 340.83,-203 344.67,-203 348.5,-206.83 348.5,-210.67 348.5,-210.67 348.5,-218.33 348.5,-218.33 348.5,-222.17 344.67,-226 340.83,-226"/>
<text text-anchor="middle" x="293" y="-210.8" font-family="Arial" font-size="14.00" fill="#cfffac">utils/progress.ts</text>
</g>
<!-- utils/progress.test.ts&#45;&gt;utils/progress.ts -->
<g id="edge10" class="edge">
<title>utils/progress.test.ts&#45;&gt;utils/progress.ts</title>
<path fill="none" stroke="#757575" d="M159.71,-214.5C181.53,-214.5 205.64,-214.5 227.24,-214.5"/>
<polygon fill="#757575" stroke="#757575" points="227.29,-218 237.29,-214.5 227.29,-211 227.29,-218"/>
</g>
<!-- utils/renderRoadmap.ts -->
<g id="node17" class="node">
<title>utils/renderRoadmap.ts</title>
<path fill="none" stroke="#c6c5fe" d="M769.83,-187C769.83,-187 628.17,-187 628.17,-187 624.33,-187 620.5,-183.17 620.5,-179.33 620.5,-179.33 620.5,-171.67 620.5,-171.67 620.5,-167.83 624.33,-164 628.17,-164 628.17,-164 769.83,-164 769.83,-164 773.67,-164 777.5,-167.83 777.5,-171.67 777.5,-171.67 777.5,-179.33 777.5,-179.33 777.5,-183.17 773.67,-187 769.83,-187"/>
<text text-anchor="middle" x="699" y="-171.8" font-family="Arial" font-size="14.00" fill="#c6c5fe">utils/renderRoadmap.ts</text>
</g>
<!-- utils/renderRoadmap.ts&#45;&gt;types/roadmap.ts -->
<g id="edge11" class="edge">
<title>utils/renderRoadmap.ts&#45;&gt;types/roadmap.ts</title>
<path fill="none" stroke="#757575" d="M777.55,-175.5C786.68,-175.5 795.95,-175.5 804.96,-175.5"/>
<polygon fill="#757575" stroke="#757575" points="804.99,-179 814.99,-175.5 804.99,-172 804.99,-179"/>
</g>
<!-- utils/roadmapInteractions.ts -->
<g id="node18" class="node">
<title>utils/roadmapInteractions.ts</title>
<path fill="none" stroke="#c6c5fe" d="M174.33,-146C174.33,-146 7.67,-146 7.67,-146 3.83,-146 0,-142.17 0,-138.33 0,-138.33 0,-130.67 0,-130.67 0,-126.83 3.83,-123 7.67,-123 7.67,-123 174.33,-123 174.33,-123 178.17,-123 182,-126.83 182,-130.67 182,-130.67 182,-138.33 182,-138.33 182,-142.17 178.17,-146 174.33,-146"/>
<text text-anchor="middle" x="91" y="-130.8" font-family="Arial" font-size="14.00" fill="#c6c5fe">utils/roadmapInteractions.ts</text>
</g>
<!-- utils/roadmapInteractions.ts&#45;&gt;lib/sync.ts -->
<g id="edge12" class="edge">
<title>utils/roadmapInteractions.ts&#45;&gt;lib/sync.ts</title>
<path fill="none" stroke="#757575" d="M157.9,-146.04C177.22,-149.13 198.42,-152.24 218,-154.5 297.37,-163.67 390.18,-169.4 445,-172.26"/>
<polygon fill="#757575" stroke="#757575" points="444.94,-175.76 455.11,-172.78 445.3,-168.77 444.94,-175.76"/>
</g>
<!-- utils/roadmapInteractions.ts&#45;&gt;utils/customContent.ts -->
<g id="edge13" class="edge">
<title>utils/roadmapInteractions.ts&#45;&gt;utils/customContent.ts</title>
<path fill="none" stroke="#757575" d="M182.05,-134.5C190.53,-134.5 199.1,-134.5 207.53,-134.5"/>
<polygon fill="#757575" stroke="#757575" points="207.71,-138 217.71,-134.5 207.71,-131 207.71,-138"/>
</g>
<!-- utils/roadmapInteractions.ts&#45;&gt;utils/progress.ts -->
<g id="edge14" class="edge">
<title>utils/roadmapInteractions.ts&#45;&gt;utils/progress.ts</title>
<path fill="none" stroke="#757575" d="M117.85,-146.18C143.18,-157.48 182.96,-174.85 218,-188.5 227.61,-192.24 238.01,-196.05 247.9,-199.55"/>
<polygon fill="#757575" stroke="#757575" points="246.97,-202.93 257.56,-202.94 249.28,-196.33 246.97,-202.93"/>
</g>
<!-- utils/tools.ts -->
<g id="node19" class="node">
<title>utils/tools.ts</title>
<path fill="none" stroke="#cfffac" d="M328.83,-105C328.83,-105 257.17,-105 257.17,-105 253.33,-105 249.5,-101.17 249.5,-97.33 249.5,-97.33 249.5,-89.67 249.5,-89.67 249.5,-85.83 253.33,-82 257.17,-82 257.17,-82 328.83,-82 328.83,-82 332.67,-82 336.5,-85.83 336.5,-89.67 336.5,-89.67 336.5,-97.33 336.5,-97.33 336.5,-101.17 332.67,-105 328.83,-105"/>
<text text-anchor="middle" x="293" y="-89.8" font-family="Arial" font-size="14.00" fill="#cfffac">utils/tools.ts</text>
</g>
<!-- utils/roadmapInteractions.ts&#45;&gt;utils/tools.ts -->
<g id="edge15" class="edge">
<title>utils/roadmapInteractions.ts&#45;&gt;utils/tools.ts</title>
<path fill="none" stroke="#757575" d="M148.24,-122.97C176.85,-117.11 211.41,-110.02 239.47,-104.27"/>
<polygon fill="#757575" stroke="#757575" points="240.4,-107.65 249.49,-102.21 238.99,-100.79 240.4,-107.65"/>
</g>
<!-- utils/trail.ts -->
<g id="node20" class="node">
<title>utils/trail.ts</title>
<path fill="none" stroke="#cfffac" d="M325.33,-64C325.33,-64 260.67,-64 260.67,-64 256.83,-64 253,-60.17 253,-56.33 253,-56.33 253,-48.67 253,-48.67 253,-44.83 256.83,-41 260.67,-41 260.67,-41 325.33,-41 325.33,-41 329.17,-41 333,-44.83 333,-48.67 333,-48.67 333,-56.33 333,-56.33 333,-60.17 329.17,-64 325.33,-64"/>
<text text-anchor="middle" x="293" y="-48.8" font-family="Arial" font-size="14.00" fill="#cfffac">utils/trail.ts</text>
</g>
<!-- utils/roadmapInteractions.ts&#45;&gt;utils/trail.ts -->
<g id="edge16" class="edge">
<title>utils/roadmapInteractions.ts&#45;&gt;utils/trail.ts</title>
<path fill="none" stroke="#757575" d="M161.55,-122.95C168.71,-120.4 175.67,-117.29 182,-113.5 202.8,-101.04 197.42,-85.32 218,-72.5 225.63,-67.75 234.39,-64.11 243.15,-61.33"/>
<polygon fill="#757575" stroke="#757575" points="244.31,-64.64 252.98,-58.54 242.4,-57.9 244.31,-64.64"/>
</g>
<!-- utils/tools.test.ts -->
<g id="node21" class="node">
<title>utils/tools.test.ts</title>
<path fill="none" stroke="#c6c5fe" d="M139.83,-105C139.83,-105 42.17,-105 42.17,-105 38.33,-105 34.5,-101.17 34.5,-97.33 34.5,-97.33 34.5,-89.67 34.5,-89.67 34.5,-85.83 38.33,-82 42.17,-82 42.17,-82 139.83,-82 139.83,-82 143.67,-82 147.5,-85.83 147.5,-89.67 147.5,-89.67 147.5,-97.33 147.5,-97.33 147.5,-101.17 143.67,-105 139.83,-105"/>
<text text-anchor="middle" x="91" y="-89.8" font-family="Arial" font-size="14.00" fill="#c6c5fe">utils/tools.test.ts</text>
</g>
<!-- utils/tools.test.ts&#45;&gt;utils/tools.ts -->
<g id="edge17" class="edge">
<title>utils/tools.test.ts&#45;&gt;utils/tools.ts</title>
<path fill="none" stroke="#757575" d="M147.71,-93.5C176.33,-93.5 211.01,-93.5 239.2,-93.5"/>
<polygon fill="#757575" stroke="#757575" points="239.27,-97 249.27,-93.5 239.27,-90 239.27,-97"/>
</g>
<!-- utils/trackColors.ts -->
<g id="node22" class="node">
<title>utils/trackColors.ts</title>
<path fill="none" stroke="#cfffac" d="M146.83,-390C146.83,-390 35.17,-390 35.17,-390 31.33,-390 27.5,-386.17 27.5,-382.33 27.5,-382.33 27.5,-374.67 27.5,-374.67 27.5,-370.83 31.33,-367 35.17,-367 35.17,-367 146.83,-367 146.83,-367 150.67,-367 154.5,-370.83 154.5,-374.67 154.5,-374.67 154.5,-382.33 154.5,-382.33 154.5,-386.17 150.67,-390 146.83,-390"/>
<text text-anchor="middle" x="91" y="-374.8" font-family="Arial" font-size="14.00" fill="#cfffac">utils/trackColors.ts</text>
</g>
<!-- utils/trail.test.ts -->
<g id="node23" class="node">
<title>utils/trail.test.ts</title>
<path fill="none" stroke="#c6c5fe" d="M136.33,-64C136.33,-64 45.67,-64 45.67,-64 41.83,-64 38,-60.17 38,-56.33 38,-56.33 38,-48.67 38,-48.67 38,-44.83 41.83,-41 45.67,-41 45.67,-41 136.33,-41 136.33,-41 140.17,-41 144,-44.83 144,-48.67 144,-48.67 144,-56.33 144,-56.33 144,-60.17 140.17,-64 136.33,-64"/>
<text text-anchor="middle" x="91" y="-48.8" font-family="Arial" font-size="14.00" fill="#c6c5fe">utils/trail.test.ts</text>
</g>
<!-- utils/trail.test.ts&#45;&gt;utils/trail.ts -->
<g id="edge18" class="edge">
<title>utils/trail.test.ts&#45;&gt;utils/trail.ts</title>
<path fill="none" stroke="#757575" d="M144.03,-52.5C174.46,-52.5 212.68,-52.5 242.64,-52.5"/>
<polygon fill="#757575" stroke="#757575" points="242.87,-56 252.87,-52.5 242.87,-49 242.87,-56"/>
</g>
<!-- utils/url.test.ts -->
<g id="node24" class="node">
<title>utils/url.test.ts</title>
<path fill="none" stroke="#cfffac" d="M132.83,-431C132.83,-431 49.17,-431 49.17,-431 45.33,-431 41.5,-427.17 41.5,-423.33 41.5,-423.33 41.5,-415.67 41.5,-415.67 41.5,-411.83 45.33,-408 49.17,-408 49.17,-408 132.83,-408 132.83,-408 136.67,-408 140.5,-411.83 140.5,-415.67 140.5,-415.67 140.5,-423.33 140.5,-423.33 140.5,-427.17 136.67,-431 132.83,-431"/>
<text text-anchor="middle" x="91" y="-415.8" font-family="Arial" font-size="14.00" fill="#cfffac">utils/url.test.ts</text>
</g>
<!-- utils/url.ts -->
<g id="node25" class="node">
<title>utils/url.ts</title>
<path fill="none" stroke="#cfffac" d="M120.33,-472C120.33,-472 61.67,-472 61.67,-472 57.83,-472 54,-468.17 54,-464.33 54,-464.33 54,-456.67 54,-456.67 54,-452.83 57.83,-449 61.67,-449 61.67,-449 120.33,-449 120.33,-449 124.17,-449 128,-452.83 128,-456.67 128,-456.67 128,-464.33 128,-464.33 128,-468.17 124.17,-472 120.33,-472"/>
<text text-anchor="middle" x="91" y="-456.8" font-family="Arial" font-size="14.00" fill="#cfffac">utils/url.ts</text>
</g>
</g>
</svg>
